HIERARCHY
ROOT SimulationBone
{
	OFFSET 0.000000 0.000000 0.000000
	CHANNELS 6 Xposition Yposition Zposition Zrotation Yrotation Xrotation 
	JOINT Hips
	{
		OFFSET 0.000000 0.000000 0.000000
		CHANNELS 6 Xposition Yposition Zposition Zrotation Yrotation Xrotation 
		JOINT LeftUpLeg
		{
			OFFSET 0.103458 1.857829 10.548508
			CHANNELS 3 Zrotation Yrotation Xrotation
			JOINT LeftLeg
			{
				OFFSET 43.499996 -0.000038 0.000006
				CHANNELS 3 Zrotation Yrotation Xrotation
				JOINT LeftFoot
				{
					OFFSET 42.372200 0.000008 -0.000002
					CHANNELS 3 Zrotation Yrotation Xrotation
					JOINT LeftToe
					{
						OFFSET 17.299995 -0.000002 0.000004
						CHANNELS 3 Zrotation Yrotation Xrotation
						End Site
						{
							OFFSET 0.000000 0.000000 0.000000
						}
					}
				}
			}
		}
		JOINT RightUpLeg
		{
			OFFSET 0.103455 1.857822 -10.548502
			CHANNELS 3 Zrotation Yrotation Xrotation
			JOINT RightLeg
			{
				OFFSET 43.500038 -0.000023 0.000006
				CHANNELS 3 Zrotation Yrotation Xrotation
				JOINT RightFoot
				{
					OFFSET 42.372261 0.000000 0.000010
					CHANNELS 3 Zrotation Yrotation Xrotation
					JOINT RightToe
					{
						OFFSET 17.299995 -0.000005 0.000002
						CHANNELS 3 Zrotation Yrotation Xrotation
						End Site
						{
							OFFSET 0.000000 0.000000 0.000000
						}
					}
				}
			}
		}
		JOINT Spine
		{
			OFFSET 6.901965 -2.603733 -0.000004
			CHANNELS 3 Zrotation Yrotation Xrotation
			JOINT Spine1
			{
				OFFSET 12.588106 0.000003 0.000000
				CHANNELS 3 Zrotation Yrotation Xrotation
				JOINT Spine2
				{
					OFFSET 12.343201 0.000003 0.000003
					CHANNELS 3 Zrotation Yrotation Xrotation
					JOINT Neck
					{
						OFFSET 25.832893 -0.000008 0.000002
						CHANNELS 3 Zrotation Yrotation Xrotation
						JOINT Head
						{
							OFFSET 11.766605 0.000004 0.000000
							CHANNELS 3 Zrotation Yrotation Xrotation
							End Site
							{
								OFFSET 0.000000 0.000000 0.000000
							}
						}
					}
					JOINT LeftShoulder
					{
						OFFSET 19.745905 -1.480375 6.000105
						CHANNELS 3 Zrotation Yrotation Xrotation
						JOINT LeftArm
						{
							OFFSET 11.284126 -0.000015 -0.000029
							CHANNELS 3 Zrotation Yrotation Xrotation
							JOINT LeftForeArm
							{
								OFFSET 33.000050 0.000007 0.000040
								CHANNELS 3 Zrotation Yrotation Xrotation
								JOINT LeftHand
								{
									OFFSET 25.200010 0.000008 0.000004
									CHANNELS 3 Zrotation Yrotation Xrotation
									End Site
									{
										OFFSET 0.000000 0.000000 0.000000
									}
								}
							}
						}
					}
					JOINT RightShoulder
					{
						OFFSET 19.746092 -1.480381 -6.000073
						CHANNELS 3 Zrotation Yrotation Xrotation
						JOINT RightArm
						{
							OFFSET 11.284138 -0.000024 -0.000021
							CHANNELS 3 Zrotation Yrotation Xrotation
							JOINT RightForeArm
							{
								OFFSET 33.000099 0.000014 0.000014
								CHANNELS 3 Zrotation Yrotation Xrotation
								JOINT RightHand
								{
									OFFSET 25.199772 0.000145 0.000419
									CHANNELS 3 Zrotation Yrotation Xrotation
									End Site
									{
										OFFSET 0.000000 0.000000 0.000000
									}
								}
							}
						}
					}
				}
			}
		}
	}
}
MOTION
Frames: 10
Frame Time: 0.033333
-88.716203 0.000000 225.153533 0.000000 90.672309 0.000000 -0.870670 89.469254 -0.686333 90.094016 -3.131693 176.408275 165.118484 -2.401202 173.198530 -29.384273 -0.788154 -1.100430 84.819065 0.151755 -3.034472 21.454551 0.003086 0.000000 153.572255 7.911189 -179.924996 -68.257830 -4.271083 -19.999573 71.641581 22.465274 22.996176 21.454558 -0.003110 -0.000016 6.223633 -0.904062 -1.487873 2.457949 -1.777144 -2.994504 2.140142 -1.795059 -2.983726 18.547770 9.612399 -5.129300 -12.305430 -1.751363 -4.386529 -131.543583 -82.386602 -50.583503 8.324129 60.903636 40.595195 -65.066950 -19.531185 2.607355 1.665034 -9.610247 10.623539 -162.040200 76.447609 19.779475 29.150991 -67.540196 -37.501222 -21.911021 7.383099 -0.631429 8.831048 0.940616 -7.154925 
-88.961507 0.000000 224.006841 0.000000 88.411624 0.000000 -1.062376 89.538559 -0.592037 89.963413 -2.682674 176.313716 166.185264 -2.895100 171.322769 -29.289118 -0.204096 -1.420300 85.643325 0.298760 -3.431085 21.454551 0.003081 -0.000001 151.487695 7.836507 179.911103 -70.415528 -3.929467 -15.814611 74.148950 19.097943 23.848295 21.454565 -0.003112 -0.000013 6.238803 -0.779467 -1.575293 2.486079 -1.525778 -3.166860 2.168391 -1.544726 -3.157609 18.244424 10.203523 -4.566492 -11.994652 -2.684457 -3.436460 -129.049676 -82.546675 -53.092041 5.020177 59.924952 29.876777 -74.126616 -14.586421 2.635326 -0.512561 -7.787775 14.660111 -161.343903 76.633356 20.488901 32.201152 -66.381331 -40.441072 -21.514531 7.409120 -0.628071 9.751578 -0.166076 -9.351470 
-89.110397 0.000000 222.840980 0.000000 86.197667 0.000000 -1.230921 89.834824 -0.468835 89.737438 -1.637890 176.750291 167.468671 -4.018098 169.507578 -28.504970 0.193106 -1.337166 86.075417 0.209479 -3.625840 21.454553 0.003084 -0.000000 149.875852 7.376397 -178.718388 -70.517086 -3.777230 -9.754580 75.166006 14.044880 22.659788 21.454562 -0.003117 -0.000020 6.285423 -0.531530 -1.717801 2.573542 -1.025671 -3.446870 2.256006 -1.046318 -3.440616 17.618903 10.984821 -4.078113 -13.016770 -3.303592 -2.586936 -123.416191 -82.993608 -58.746396 0.608535 59.748678 17.471443 -83.137985 -7.472644 2.525576 -1.260408 -6.598046 14.425901 -160.957219 76.821713 20.881705 34.530657 -65.080693 -42.600218 -22.387970 7.820719 -0.666504 10.382973 -0.789421 -8.880651 
-89.148863 0.000000 221.656050 0.000000 84.031670 0.000000 -1.417286 89.922150 -0.339083 89.415575 -1.088673 177.339002 168.390664 -4.754496 167.529978 -28.143962 0.541055 -1.077687 86.693351 0.006315 -3.825662 21.454553 0.003101 0.000001 148.519745 7.445505 -176.975843 -68.775039 -3.896749 -4.321054 76.477136 8.928426 19.852119 21.454551 -0.003111 -0.000014 6.290063 -0.390664 -1.882049 2.579563 -0.740256 -3.772231 2.262183 -0.762864 -3.767701 17.145267 11.826138 -3.741338 -14.623585 -3.652440 -1.962684 -117.274170 -83.619424 -64.889461 -5.445945 59.490449 5.326075 -91.155015 -1.575997 2.466726 -2.661512 -6.686616 15.075243 -159.137493 76.825906 22.740208 35.729088 -63.866408 -42.645010 -23.373601 8.187063 -0.704085 9.759404 -1.245337 -7.905208 
-89.049680 0.000000 220.451937 0.000000 81.914123 0.000000 -1.574751 89.968933 -0.275334 89.077744 -0.691835 177.783835 169.289790 -5.220992 165.954718 -27.832924 0.889304 -1.129763 87.371971 -0.019729 -4.238331 21.454553 0.003086 -0.000001 147.402709 7.800991 -175.650349 -65.169765 -4.049309 -1.081765 77.084299 5.653336 17.138307 21.454560 -0.003102 -0.000019 6.267968 -0.293564 -2.067987 2.532984 -0.542906 -4.141814 2.215765 -0.567746 -4.138468 16.908529 12.393701 -3.319091 -15.915519 -3.589359 -1.431657 -110.889303 -84.070770 -71.277218 -13.462571 58.513691 -4.095208 -98.330750 0.547220 2.637606 -5.886357 -9.212520 13.278110 -157.678346 76.920819 24.228745 35.746478 -63.253590 -41.295163 -24.207714 8.859476 -0.760164 9.016193 -1.253089 -6.770432 
-88.800638 0.000000 219.226773 0.000000 79.855288 0.000000 -1.672504 89.938782 -0.249962 88.829908 -0.507574 177.991039 170.385762 -5.363997 164.965529 -27.438957 1.138191 -1.649141 88.061670 0.234883 -4.895897 21.454550 0.003103 0.000002 146.675171 8.153802 -174.686036 -60.080202 -4.103325 0.643823 76.991579 3.704781 14.727787 21.454560 -0.003111 -0.000014 6.239328 -0.246465 -2.248113 2.474623 -0.446019 -4.500888 2.157568 -0.473019 -4.498128 17.096993 12.585475 -2.745241 -16.996019 -3.326679 -0.893774 -105.589486 -84.294117 -76.583817 -22.177838 56.766163 -14.010427 -105.114193 2.355017 2.812233 -6.040015 -11.530123 10.484380 -156.526912 77.314415 25.396747 35.358175 -63.237689 -39.669711 -25.457414 9.661467 -0.831567 9.195897 -0.396504 -4.970028 
-88.389558 0.000000 217.981636 0.000000 77.857313 0.000000 -1.742387 89.869003 -0.302992 88.567949 -0.522657 177.984965 171.627026 -5.069398 164.965693 -26.778201 1.263487 -2.873502 88.628856 0.925804 -5.812994 21.454555 0.003085 -0.000001 146.346461 8.766293 -173.848354 -53.569703 -3.962849 0.559547 76.058166 3.344572 12.913337 21.454562 -0.003118 -0.000019 6.189528 -0.240820 -2.375134 2.375270 -0.434154 -4.754614 2.058354 -0.462696 -4.751911 17.448147 12.823497 -2.232640 -17.757749 -3.610751 -0.247004 -101.881369 -84.581559 -80.284960 -30.855403 54.270252 -23.486732 -110.780204 3.722600 2.964605 -5.843063 -13.510281 4.456794 -154.543316 77.724138 27.411142 34.550099 -63.506771 -37.744325 -26.937192 10.342605 -0.899985 8.806867 0.778852 -3.468783 
-87.822913 0.000000 216.717090 0.000000 75.924709 0.000000 -1.799646 89.846397 -0.453182 88.327719 -0.457305 177.721982 173.136416 -4.771300 164.812232 -25.758373 1.415986 -4.132049 89.032561 1.638342 -6.739980 21.454555 0.003079 0.000000 146.802280 8.832301 -172.863987 -45.450664 -3.681172 0.280670 74.260597 2.943320 10.336278 21.454560 -0.003104 -0.000018 6.120499 -0.241633 -2.445955 2.237568 -0.437286 -4.896046 1.920720 -0.466670 -4.893312 18.309425 13.360522 -1.678319 -18.375857 -4.522923 0.633643 -97.799894 -84.867409 -84.363751 -38.471006 51.373237 -31.375150 -115.039100 4.549740 3.089453 -5.559112 -14.802977 -0.098901 -154.308030 77.719930 27.651131 33.105179 -63.615043 -35.369725 -28.881434 10.861970 -0.967925 8.493401 2.256124 -3.599958 
-87.112356 0.000000 215.436618 0.000000 74.058327 0.000000 -1.808816 89.831520 -0.695660 88.200324 -0.357951 177.217642 174.996809 -4.548598 163.859011 -24.499163 1.598126 -5.019853 89.393106 2.120994 -7.570033 21.454551 0.003102 0.000002 148.207810 8.674197 -171.713319 -35.965027 -2.855337 -0.347558 72.656274 2.709516 7.804814 21.454558 -0.003105 -0.000017 6.058656 -0.214868 -2.482280 2.112914 -0.385781 -4.967994 1.796080 -0.415617 -4.965581 19.284117 13.064389 -1.050339 -18.590149 -4.955555 1.342048 -95.197838 -84.718880 -86.990894 -45.217618 48.282990 -38.221561 -118.234714 5.030562 3.190004 -5.296146 -15.084495 -2.378232 -155.121205 77.954213 26.817011 31.827759 -63.757022 -34.152998 -31.076415 11.520320 -1.052664 7.236141 3.707354 -3.453510 
-86.266547 0.000000 214.146292 0.000000 72.253459 0.000000 -1.847182 89.745247 -1.015968 87.914269 -0.539195 176.776236 176.687459 -3.966800 162.921062 -23.202554 1.808377 -5.861154 89.766711 2.575735 -8.434925 21.454551 0.003095 0.000002 149.887149 8.452590 -169.911761 -25.845144 -2.031788 -1.022445 70.238940 2.637260 5.714926 21.454557 -0.003107 -0.000019 5.956998 -0.219841 -2.489190 1.909906 -0.400039 -4.981577 1.593092 -0.429936 -4.979079 19.953522 12.093874 -0.526293 -18.881537 -5.064998 1.840469 -93.225218 -84.657381 -88.977817 -50.138660 45.689304 -43.174548 -120.493512 5.327172 3.262337 -5.196332 -15.466291 -3.357222 -154.987524 78.392485 26.943729 31.910784 -64.095608 -33.911708 -34.610822 12.419345 -1.186041 5.168632 4.538851 -4.669203 
